# Blender v3.0.0 OBJ File: '2大.blend'
# www.blender.org
mtllib 2大.mtl
o Cube
v -50.000000 1.000000 -50.000000
v -50.000000 -1.000000 -50.000000
v 0.000000 1.000000 -50.000000
v -0.010949 -1.000000 -50.000000
v -50.000000 -1.000000 0.013614
v -50.000000 1.000000 -0.013614
vt 0.125000 0.500000
vt 0.249973 0.500000
vt 0.125000 0.625034
vt 0.375000 0.250000
vt 0.625000 0.250000
vt 0.625000 0.375000
vt 0.375000 0.374973
vt 0.750000 0.500000
vt 0.625000 0.125034
vt 0.375000 0.124966
vt 0.875000 0.624966
vt 0.875000 0.500000
vn 0.0000 -1.0000 0.0000
vn 0.0000 0.0000 -1.0000
vn 0.7071 0.0029 0.7071
vn -1.0000 0.0000 0.0000
vn 0.0000 1.0000 0.0000
usemtl Material
s off
f 2/1/1 4/2/1 5/3/1
f 2/4/2 1/5/2 3/6/2 4/7/2
f 4/2/3 3/8/3 6/9/3 5/3/3
f 5/10/4 6/9/4 1/5/4 2/4/4
f 6/11/5 3/8/5 1/12/5
