# Blender v3.0.0 OBJ File: '半半.blend'
# www.blender.org
mtllib 半半.mtl
o Cube
v -0.047791 -1.000000 0.047791
v -0.158632 1.000000 0.158632
v -50.000000 1.000000 -50.000000
v -50.000000 -1.000000 -50.000000
v -50.000000 1.000000 50.000000
v -50.000000 -1.000000 50.000000
vt 0.375000 0.000000
vt 0.625000 0.000000
vt 0.625000 0.250000
vt 0.375000 0.250000
vt 0.249881 0.625119
vt 0.125000 0.500000
vt 0.750397 0.625397
vt 0.875000 0.500000
vt 0.875000 0.750000
vt 0.125000 0.750000
vt 0.375000 0.249761
vn -1.0000 0.0000 0.0000
vn 0.7080 0.0392 -0.7051
vn 0.0000 1.0000 0.0000
vn 0.0000 -1.0000 0.0000
vn 0.7071 0.0000 0.7071
usemtl Material
s off
f 6/1/1 5/2/1 3/3/1 4/4/1
f 1/5/2 4/6/2 3/3/2 2/7/2
f 2/7/3 3/8/3 5/9/3
f 1/5/4 6/10/4 4/6/4
f 1/11/5 2/7/5 5/9/5 6/1/5
